<svg width="155" height="70" viewBox="0 0 155 70" fill="none" xmlns="http://www.w3.org/2000/svg">
<g clip-path="url(#clip0_2491_1070)">
<path d="M126.026 69.949L0 70L28.995 0H155L126.026 69.949Z" fill="white"/>
<path d="M137.088 11.0901C137.524 11.3366 137.884 11.6968 138.13 12.1321C138.38 12.5837 138.511 13.0916 138.509 13.6078C138.508 14.1239 138.375 14.6312 138.122 15.0813C137.871 15.5217 137.507 15.8872 137.067 16.1399C136.618 16.3935 136.111 16.5267 135.595 16.5267C135.079 16.5267 134.572 16.3935 134.123 16.1399C133.686 15.8878 133.325 15.5237 133.077 15.0852C132.825 14.6374 132.693 14.1325 132.693 13.6189C132.693 13.1054 132.825 12.6004 133.077 12.1526C133.326 11.7138 133.689 11.35 134.127 11.0989C134.577 10.8388 135.089 10.7048 135.609 10.7112C136.127 10.7048 136.637 10.8355 137.088 11.0901ZM136.911 15.8724C137.502 15.5139 137.931 14.9402 138.108 14.272C138.284 13.6037 138.195 12.893 137.858 12.2893C137.638 11.9017 137.318 11.58 136.932 11.3577C136.526 11.1327 136.069 11.015 135.605 11.0159C135.141 11.0167 134.684 11.136 134.279 11.3625C133.887 11.5867 133.563 11.9122 133.34 12.3049C133.116 12.7066 132.999 13.159 132.999 13.6189C132.999 14.0789 133.116 14.5313 133.34 14.933C133.562 15.3254 133.885 15.6511 134.275 15.8763C134.678 16.1036 135.132 16.2227 135.594 16.222C136.056 16.2213 136.51 16.1008 136.911 15.8724ZM136.874 13.7054C136.737 13.8902 136.545 14.0271 136.326 14.097L137.101 15.2835H136.656L135.939 14.1712C135.876 14.1776 135.813 14.1802 135.75 14.179H134.893V15.2835H134.465V11.9553H135.75C136.096 11.936 136.438 12.0413 136.713 12.2522C136.83 12.3506 136.923 12.4745 136.984 12.6143C137.046 12.7542 137.074 12.9063 137.067 13.0589C137.074 13.2896 137.006 13.5163 136.874 13.7054ZM136.404 13.6194C136.486 13.5514 136.55 13.4653 136.592 13.368C136.635 13.2706 136.653 13.1648 136.648 13.0589C136.653 12.9548 136.634 12.851 136.592 12.7557C136.549 12.6605 136.485 12.5766 136.404 12.511C136.207 12.3711 135.967 12.3029 135.725 12.3177H134.885V13.8167H135.725C135.968 13.8317 136.208 13.762 136.404 13.6194Z" fill="#374063"/>
<path d="M99.6735 23.4003L103.725 13.6116L110.7 13.6129L112.029 10.4275H107.302C106.931 10.4137 106.558 10.4253 106.189 10.4622C104.81 10.4956 103.458 10.8455 102.237 11.485C100.975 12.1479 99.9196 13.1453 99.1869 14.368C98.4455 15.6166 98.064 17.046 98.0848 18.498C98.0641 19.95 98.4455 21.3794 99.1869 22.628C99.2847 22.7915 99.6533 23.3741 99.6735 23.4003Z" fill="#374063"/>
<path d="M86.4681 13.6081L87.6701 10.7031H76.7901L73.2871 19.1261H75.2341L72.2441 26.3421H74.4181H75.2971H75.8161L78.1721 20.6451H83.5711L84.7911 17.7411H77.4231L79.1371 13.6081H86.4681Z" fill="#374063"/>
<path d="M95.4657 10.7031H91.8897L88.3857 19.1261H90.1517L87.1387 26.3421H90.7417L94.3257 17.7111H92.5337L95.4657 10.7031Z" fill="#374063"/>
<path d="M71.4329 13.6081L72.6479 10.7031H61.7399L58.2429 19.1261H60.2049L57.2129 26.3421H59.6679H60.3459H60.8079L63.1679 20.6451H68.5159L69.7119 17.7411H62.4729L64.1429 13.6081H71.4329Z" fill="#374063"/>
<path d="M54.4375 14.3599C54.3531 14.2192 54.2555 14.0913 54.1602 13.9609L50.2477 23.4035C50.2477 23.4035 40.1504 23.391 40.1602 23.4035C41.527 24.959 43.376 26.0112 45.4114 26.3917C47.4468 26.7723 49.551 26.4592 51.3875 25.5026C52.6495 24.8398 53.7047 23.8424 54.4375 22.6197C55.1788 21.3711 55.5603 19.9418 55.5395 18.4898C55.5603 17.0379 55.1789 15.6085 54.4375 14.3599Z" fill="#374063"/>
<path d="M43.8253 13.6145H53.895C53.8791 13.5938 53.8551 13.5638 53.839 13.5434C52.4696 11.9998 50.6237 10.958 48.5945 10.5835C46.5653 10.2089 44.4691 10.5231 42.6389 11.4762C41.377 12.1391 40.3219 13.1366 39.5891 14.3593C38.8477 15.6079 38.4663 17.0373 38.4871 18.4892C38.4664 19.9412 38.8478 21.3705 39.5891 22.6191C39.685 22.7792 39.7993 22.9248 39.9076 23.0737L43.8253 13.6145Z" fill="#374063"/>
<path d="M128.445 13.6081L129.654 10.7031H116.465L112.976 19.1381H114.741L111.76 26.3421H115.287H116.026H123.175L124.378 23.4381H116.46L117.972 19.8191H125.873L127.039 17.0041H117.452L118.867 13.6081H128.445Z" fill="#374063"/>
<path d="M105.909 26.5439C104.696 26.5433 103.5 26.2586 102.417 25.7124C101.334 25.1662 100.394 24.3738 99.6719 23.3987C101.796 23.3987 106.374 23.3984 106.374 23.3984H109.37L108.068 26.5439H105.909Z" fill="#374063"/>
<path d="M118.16 40.3993C118.011 40.151 117.838 39.9254 117.67 39.6953L110.768 56.3545C110.768 56.3545 92.9535 56.3323 92.9707 56.3545C96.6273 61.0556 102.695 61.9035 105.061 61.9035C107.747 61.944 110.401 61.3093 112.779 60.0578C115.005 58.8883 116.867 57.1287 118.16 54.9716C119.433 52.7546 120.104 50.2424 120.104 47.6855C120.104 45.1285 119.433 42.6163 118.16 40.3993Z" fill="#E63B11"/>
<path d="M99.4354 39.0884H117.201C117.173 39.052 117.131 38.999 117.102 38.9631C113.441 34.3148 107.417 33.4706 105.06 33.4706C102.374 33.4302 99.7201 34.0647 97.3423 35.3158C95.116 36.4855 93.2545 38.2452 91.9618 40.4024C90.6879 42.6194 90.0176 45.1316 90.0176 47.6886C90.0176 50.2455 90.6879 52.7577 91.9618 54.9747C92.131 55.2572 92.3326 55.5139 92.5236 55.7766L99.4354 39.0884Z" fill="#E63B11"/>
<path d="M107.693 47.1146L105.148 47.7846L106.765 45.7716L119.137 37.2266L120.064 38.5686L107.693 47.1146Z" fill="#374063"/>
<path d="M87.1775 38.6148C86.9062 37.8498 86.4811 37.1484 85.9284 36.554C85.3757 35.9595 84.7071 35.4845 83.9638 35.1583C81.9452 34.271 79.7512 33.8547 77.5479 33.9408H65.9626L63.8182 39.1184L81.7413 39.071L77.7078 48.8099C72.731 48.8099 62.461 48.8068 59.8029 48.8068L54.5215 61.5551H61.4037L64.5815 53.9063H70.5498L73.5666 61.5551H80.9611L77.4945 52.5974C79.6322 51.8743 81.5977 50.7175 83.2678 49.1997C84.8544 47.7494 86.0671 45.9371 86.8025 43.9172C87.5314 42.2449 87.6638 40.373 87.1775 38.6148Z" fill="#E63B11"/>
<path d="M56.6558 38.6171C56.3844 37.8521 55.9593 37.1508 55.4066 36.5563C54.8539 35.9618 54.1854 35.4868 53.4421 35.1605C51.4179 34.282 49.2208 33.8736 47.0161 33.9659H35.4281L33.3065 39.0899H51.2102L47.1834 48.8121C42.1952 48.8121 33.0326 48.7335 29.3247 48.7013L23.9961 61.5573H30.8823L34.0535 53.9081H39.6878C42.1837 53.9163 44.6622 53.4936 47.0143 52.6585C49.1513 51.9186 51.1107 50.7414 52.7673 49.2019C54.3382 47.7424 55.542 45.9324 56.2808 43.9194C57.0092 42.247 57.1416 40.3753 56.6558 38.6171Z" fill="#E63B11"/>
<path d="M95.0488 54.2259C95.0293 54.1884 95.0192 54.1467 95.0195 54.1044C95.0198 54.0622 95.0305 54.0206 95.0505 53.9834C95.0921 53.8858 95.1615 53.8027 95.2502 53.7444C95.3298 53.6855 95.4255 53.6522 95.5246 53.6491C95.5626 53.646 95.6008 53.6532 95.6352 53.67C95.6695 53.6868 95.6987 53.7125 95.7196 53.7444C95.7392 53.7812 95.7494 53.8223 95.7493 53.864C95.7492 53.9057 95.7388 53.9467 95.7191 53.9834C95.6765 54.0817 95.6069 54.1658 95.5183 54.2259C95.4386 54.2873 95.3416 54.3222 95.241 54.3257C95.2028 54.3289 95.1645 54.3213 95.1305 54.3036C95.0964 54.2859 95.0681 54.259 95.0488 54.2259Z" fill="#374063"/>
<path d="M101.388 50.499C101.469 50.6838 101.505 50.8853 101.493 51.0866C101.48 51.288 101.42 51.4835 101.317 51.657L100.214 54.2913H99.8323L100.142 53.5509C99.9096 53.7936 99.6309 53.9871 99.3223 54.1202C99.0065 54.2565 98.6658 54.3256 98.3218 54.3233C98.148 54.3434 97.9719 54.3245 97.8064 54.2681C97.6408 54.2116 97.4899 54.119 97.3646 53.997C97.2762 53.8727 97.2252 53.7257 97.2178 53.5733C97.2103 53.421 97.2466 53.2697 97.3223 53.1373C97.4697 52.7892 97.722 52.4957 98.044 52.2976C98.4432 52.0666 98.9003 51.9547 99.3611 51.9753H100.786L100.926 51.641C101.004 51.5085 101.05 51.3593 101.06 51.2057C101.07 51.052 101.043 50.8982 100.982 50.7569C100.886 50.643 100.763 50.5555 100.625 50.5027C100.486 50.4499 100.336 50.4335 100.189 50.4551C99.8991 50.4571 99.6116 50.5055 99.3372 50.5983C99.0543 50.6892 98.7849 50.8178 98.5363 50.9805L98.4576 50.6935C98.7454 50.5062 99.0583 50.3602 99.3868 50.26C99.704 50.1592 100.035 50.1069 100.367 50.1048C100.557 50.078 100.75 50.1001 100.929 50.1691C101.108 50.2381 101.266 50.3517 101.388 50.499ZM99.494 53.758C99.817 53.5867 100.101 53.351 100.33 53.0655L100.656 52.2857H99.239C98.898 52.2696 98.5591 52.3465 98.2584 52.5082C98.0195 52.6494 97.833 52.8647 97.7273 53.1214C97.6691 53.2196 97.6412 53.3328 97.6472 53.4468C97.6532 53.5608 97.6928 53.6705 97.761 53.762C97.8631 53.8519 97.9829 53.9192 98.1128 53.9597C98.2426 54.0002 98.3795 54.0129 98.5146 53.997C98.8556 53.9979 99.1917 53.9159 99.494 53.758Z" fill="#374063"/>
<path d="M110.123 50.5571C110.203 50.7688 110.236 50.9958 110.217 51.2215C110.199 51.4473 110.131 51.6662 110.018 51.8623L109.001 54.2901H108.603L109.606 51.8942C109.698 51.7341 109.755 51.5562 109.773 51.3724C109.791 51.1885 109.77 51.003 109.71 50.828C109.626 50.6966 109.505 50.5921 109.363 50.5272C109.221 50.4622 109.063 50.4396 108.909 50.4618C108.441 50.4617 107.987 50.6155 107.615 50.8994C107.211 51.2015 106.899 51.6091 106.712 52.0774L105.786 54.2901H105.387L106.39 51.8942C106.482 51.7341 106.539 51.5562 106.557 51.3724C106.575 51.1886 106.554 51.003 106.495 50.8281C106.41 50.6966 106.29 50.5921 106.148 50.5272C106.006 50.4623 105.848 50.4396 105.693 50.4619C105.226 50.4618 104.771 50.6155 104.399 50.8994C103.996 51.2016 103.683 51.6092 103.496 52.0774L102.57 54.2901H102.172L103.912 50.1356H104.294L103.92 51.0266C104.172 50.7415 104.479 50.51 104.822 50.3461C105.158 50.1857 105.526 50.1028 105.899 50.1036C106.204 50.0809 106.508 50.1715 106.751 50.358C106.85 50.4536 106.924 50.5715 106.967 50.7018C107.01 50.8321 107.022 50.9709 107 51.1065C107.265 50.7994 107.59 50.5501 107.955 50.374C108.31 50.1971 108.702 50.1046 109.099 50.1036C109.295 50.0768 109.494 50.105 109.675 50.185C109.856 50.2651 110.011 50.3939 110.123 50.5571Z" fill="#374063"/>
</g>
<defs>
<clipPath id="clip0_2491_1070">
<rect width="155" height="70" fill="white"/>
</clipPath>
</defs>
</svg>
